<svg xmlns="http://www.w3.org/2000/svg" viewBox="0 0 1600 900" role="img" aria-labelledby="title desc">
  <title id="title">HomeHub fallback photo two</title>
  <desc id="desc">A calm evening household scene used as a fallback slideshow frame.</desc>
  <defs>
    <linearGradient id="bg2" x1="0%" y1="0%" x2="100%" y2="100%">
      <stop offset="0%" stop-color="#08111b"/>
      <stop offset="45%" stop-color="#18283a"/>
      <stop offset="100%" stop-color="#3a6c6d"/>
    </linearGradient>
  </defs>
  <rect width="1600" height="900" fill="url(#bg2)"/>
  <rect x="0" y="0" width="1600" height="900" fill="url(#bg2)"/>
  <circle cx="250" cy="210" r="90" fill="#4fb3ff" fill-opacity=".18"/>
  <circle cx="980" cy="170" r="200" fill="#2ac27b" fill-opacity=".08"/>
  <path d="M0 560c160-70 278-106 384-106s204 18 316 54 218 66 330 66 214-40 304-120 168-96 266-48V900H0V560z" fill="#173246"/>
  <path d="M0 656c150 34 260 52 366 52s212-28 324-84 236-80 368-52 284 110 542 246H0V656z" fill="#21465d"/>
  <rect x="940" y="306" width="420" height="260" rx="30" fill="#f7fbff" fill-opacity=".07" stroke="#f7fbff" stroke-opacity=".12"/>
  <circle cx="1035" cy="400" r="54" fill="#2ac27b" fill-opacity=".32"/>
  <circle cx="1116" cy="400" r="54" fill="#4fb3ff" fill-opacity=".3"/>
  <circle cx="1197" cy="400" r="54" fill="#f4b740" fill-opacity=".32"/>
  <rect x="1010" y="485" width="280" height="22" rx="11" fill="#f7fbff" fill-opacity=".16"/>
  <rect x="1010" y="525" width="220" height="18" rx="9" fill="#f7fbff" fill-opacity=".12"/>
  <text x="120" y="780" fill="#f7fbff" font-size="40" font-family="Inter, sans-serif" font-weight="700">Family moments stay visible even when providers fail.</text>
</svg>
